<svg width="20" height="21" viewBox="0 0 20 21" fill="none" xmlns="http://www.w3.org/2000/svg">
<path d="M14.1667 14.6666H14.175M14.5 12.1666H15C15.7766 12.1666 16.1648 12.1666 16.4712 12.2935C16.8795 12.4626 17.204 12.7871 17.3732 13.1955C17.5 13.5018 17.5 13.8901 17.5 14.6666C17.5 15.4432 17.5 15.8315 17.3732 16.1378C17.204 16.5461 16.8795 16.8706 16.4712 17.0398C16.1648 17.1666 15.7766 17.1666 15 17.1666H5C4.22343 17.1666 3.83515 17.1666 3.52886 17.0398C3.12048 16.8706 2.79603 16.5461 2.62687 16.1378C2.5 15.8315 2.5 15.4432 2.5 14.6666C2.5 13.8901 2.5 13.5018 2.62687 13.1955C2.79603 12.7871 3.12048 12.4626 3.52886 12.2935C3.83515 12.1666 4.22343 12.1666 5 12.1666H5.5M10 13V3.83331M10 13L7.5 10.5M10 13L12.5 10.5" stroke="white" stroke-width="2" stroke-linecap="round" stroke-linejoin="round"/>
</svg>
