<svg width="50" height="50" viewBox="0 0 50 50" fill="none" xmlns="http://www.w3.org/2000/svg">
<g id="humidity_svgrepo.com">
<path id="Vector" d="M31.2637 6.7835C35.1006 5.95286 39.8606 5.99438 46.3381 7.60975C47.4544 7.88811 48.1329 9.01648 47.8539 10.13C47.575 11.2436 46.4439 11.9206 45.3277 11.6423C39.3054 10.1405 35.2114 10.1822 32.1475 10.8456C29.0739 11.5109 26.8646 12.8306 24.5239 14.2576L24.3487 14.3645C22.0925 15.7409 19.594 17.2652 16.2932 17.8139C12.8694 18.3831 8.82502 17.8799 3.39337 15.7122C2.32512 15.2859 1.80555 14.0764 2.2329 13.0107C2.66023 11.945 3.87267 11.4267 4.94092 11.853C9.92571 13.8423 13.1728 14.1187 15.6083 13.7139C18.081 13.3028 19.9661 12.1649 22.3512 10.7108C24.6979 9.28011 27.4362 7.61209 31.2637 6.7835Z" fill="#173555"/>
<path id="Vector_2" d="M46.3381 15.923C39.8606 14.3076 35.1006 14.2661 31.2637 15.0967C27.4362 15.9253 24.6979 17.5933 22.3512 19.024C19.9661 20.4781 18.081 21.6161 15.6083 22.0271C13.1728 22.4319 9.92571 22.1554 4.94092 20.1662C3.87267 19.7399 2.66023 20.2582 2.2329 21.324C1.80555 22.3896 2.32512 23.5992 3.39337 24.0254C8.82502 26.1931 12.8694 26.6963 16.2932 26.1271C19.594 25.5783 22.0925 24.0542 24.3487 22.6777L24.5239 22.5708C26.8646 21.1438 29.0739 19.8241 32.1475 19.1588C35.2114 18.4955 39.3054 18.4537 45.3277 19.9555C46.4439 20.2338 47.575 19.5568 47.8539 18.4432C48.1329 17.3297 47.4544 16.2013 46.3381 15.923Z" fill="#173555"/>
<path id="Vector_3" fill-rule="evenodd" clip-rule="evenodd" d="M39.5829 20.8888C38.8596 20.8888 38.2568 21.2623 37.8362 21.8275C37.6885 22.0271 37.3471 22.4942 36.8935 23.1479C36.2902 24.0173 35.4827 25.2254 34.6716 26.574C33.8646 27.9158 33.0318 29.4333 32.3948 30.9161C31.7848 32.3361 31.2477 33.8779 31.2498 35.4411C31.2512 35.8798 31.3037 36.3206 31.3758 36.7525C31.4962 37.4733 31.7408 38.4658 32.2508 39.4836C32.765 40.5096 33.5689 41.5988 34.8139 42.4267C36.0721 43.2633 37.6558 43.75 39.5829 43.75C41.51 43.75 43.0937 43.2633 44.3516 42.4267C45.5966 41.5988 46.4008 40.5096 46.915 39.4838C47.425 38.4658 47.6698 37.4733 47.7902 36.7527C47.8625 36.3202 47.9156 35.8781 47.9162 35.439C47.9168 33.8758 47.3812 32.3363 46.771 30.9161C46.1341 29.4333 45.3014 27.9158 44.4943 26.574C43.6833 25.2254 42.8756 24.0173 42.2723 23.1479C41.8187 22.4942 41.4771 22.0271 41.3296 21.8275C40.9089 21.2623 40.306 20.8888 39.5829 20.8888ZM42.9414 32.5536C42.4066 31.3086 41.6768 29.9683 40.9214 28.7125C40.4621 27.9488 40.0014 27.2296 39.5829 26.5988C39.1643 27.2296 38.7037 27.9488 38.2443 28.7125C37.4891 29.9683 36.7593 31.3086 36.2246 32.5536L36.1941 32.624C35.826 33.48 35.391 34.4921 35.4168 35.4377C35.4418 36.1856 35.6433 36.9577 35.9777 37.6248C36.2446 38.1577 36.6125 38.6273 37.1252 38.9683C37.625 39.3006 38.385 39.5933 39.5829 39.5933C40.7808 39.5933 41.5408 39.3006 42.0406 38.9683C42.5533 38.6273 42.9212 38.1575 43.1883 37.6248C43.5227 36.9577 43.7241 36.1856 43.7491 35.4375C43.7752 34.4923 43.34 33.4802 42.9718 32.6244L42.9414 32.5536Z" fill="#173555"/>
<path id="Vector_4" d="M29.4367 24.0225C31.0206 23.5098 32.235 25.1583 31.4902 26.6442C31.15 27.3231 30.7673 27.9008 30.0065 28.1696C27.9708 28.8887 26.2846 29.9015 24.524 30.9748L24.3488 31.0817C22.0925 32.4581 19.5941 33.9823 16.2932 34.531C12.8695 35.1002 8.8251 34.5971 3.39343 32.4294C2.32518 32.0031 1.80562 30.7935 2.23295 29.7279C2.66031 28.6621 3.87272 28.1437 4.94099 28.5702C9.92577 30.5594 13.1729 30.8358 15.6084 30.431C18.081 30.02 19.9661 28.8821 22.3513 27.4279C24.6179 26.046 26.9506 24.8273 29.4367 24.0225Z" fill="#173555"/>
</g>
</svg>
