<svg width="50" height="50" viewBox="0 0 50 50" fill="none" xmlns="http://www.w3.org/2000/svg">
<g id="temperature-setting-setting-configuration-options-settings-gear_svgrepo.com">
<g id="Expanded">
<path id="Wifi" fill-rule="evenodd" clip-rule="evenodd" d="M22.6562 29.2695V7.81172C22.6562 4.79141 20.2086 2.34375 17.1883 2.34375C17.1875 2.34375 17.1875 2.34375 17.1867 2.34375C14.1664 2.34375 11.7188 4.79141 11.7188 7.81172V29.2688C9.05391 31.0852 7.03125 34.1359 7.03125 37.5781C7.03125 43.1406 11.5469 47.6562 17.1094 47.6562C22.6719 47.6562 27.1875 43.1406 27.1875 37.5781C27.1875 34.1344 25.3094 31.0859 22.6562 29.2695ZM17.1094 32.4219C19.9117 32.4219 22.1875 34.6977 22.1875 37.5C22.1875 40.3023 19.9117 42.5781 17.1094 42.5781C14.307 42.5781 12.0312 40.3023 12.0312 37.5C12.0312 34.6977 14.307 32.4219 17.1094 32.4219ZM18.3313 39.4898C18.4141 39.3977 18.3961 39.2531 18.293 39.1844C17.9852 38.9773 17.6164 38.843 17.2211 38.843C16.825 38.843 16.4578 38.9766 16.15 39.1828C16.0469 39.2516 16.0297 39.3969 16.1117 39.4891L17.0719 40.5586C17.1516 40.6469 17.2898 40.6469 17.3695 40.5586L18.3313 39.4898ZM17.2211 37.9531C17.868 37.9531 18.4648 38.1672 18.9453 38.5266C19.0305 38.5898 19.1477 38.5828 19.218 38.5047L19.5617 38.1227C19.6391 38.0359 19.6313 37.8992 19.5398 37.8289C18.8977 37.3305 18.0953 37.0125 17.2211 37.0125C16.3492 37.0125 15.5469 37.3297 14.9055 37.8258C14.8141 37.8969 14.8063 38.0336 14.8836 38.1195L15.2266 38.5023C15.2969 38.5812 15.4141 38.5883 15.4984 38.525C15.9789 38.1664 16.575 37.9531 17.2211 37.9531ZM17.2211 36.0969C18.3445 36.0969 19.375 36.4898 20.1875 37.1414C20.2703 37.2086 20.3898 37.2016 20.4617 37.1219L20.7711 36.7781C20.8477 36.693 20.8406 36.5578 20.7516 36.4852C19.7875 35.6961 18.5602 35.1562 17.2211 35.1562C15.8836 35.1562 14.6586 35.6945 13.6961 36.4813C13.607 36.5539 13.5992 36.6883 13.6758 36.7734L13.9852 37.118C14.0562 37.1977 14.1758 37.2047 14.2586 37.1383C15.0711 36.4883 16.0984 36.0969 17.2211 36.0969ZM41.4062 29.2969V16.0156C41.4062 13.2109 39.1328 10.9375 36.3281 10.9375C33.5234 10.9375 31.25 13.2109 31.25 16.0156V29.2969C31.25 32.1016 33.5234 34.375 36.3281 34.375C39.1328 34.375 41.4062 32.1016 41.4062 29.2969ZM17.9688 30.9148V7.8125C17.9688 7.60547 17.8867 7.40625 17.7398 7.26016C17.5938 7.11328 17.3945 7.03125 17.1875 7.03125C16.9805 7.03125 16.7812 7.11328 16.6352 7.26016C16.4883 7.40625 16.4062 7.60547 16.4062 7.8125V30.8961C16.6375 30.8719 16.8719 30.8594 17.1094 30.8594C17.4008 30.8594 17.6875 30.8781 17.9688 30.9148ZM34.6844 28.9062H38.1023C38.5336 28.9062 38.8836 28.5562 38.8836 28.125C38.8836 27.6938 38.5336 27.3438 38.1023 27.3438H34.6844C34.2531 27.3438 33.9031 27.6938 33.9031 28.125C33.9031 28.5562 34.2531 28.9062 34.6844 28.9062ZM9.375 26.5625H5.54688C5.11562 26.5625 4.76562 26.9125 4.76562 27.3438C4.76562 27.775 5.11562 28.125 5.54688 28.125H9.375C9.80625 28.125 10.1562 27.775 10.1562 27.3438C10.1562 26.9125 9.80625 26.5625 9.375 26.5625ZM9.375 23.4375H3.125C2.69375 23.4375 2.34375 23.7875 2.34375 24.2188C2.34375 24.65 2.69375 25 3.125 25H9.375C9.80625 25 10.1562 24.65 10.1562 24.2188C10.1562 23.7875 9.80625 23.4375 9.375 23.4375ZM21.0938 18.3594H19.5312V23.8281H21.0938V18.3594ZM14.8438 23.8281V18.3594H13.2812V23.8281H14.8438ZM9.375 20.3125H5.54688C5.11562 20.3125 4.76562 20.6625 4.76562 21.0938C4.76562 21.525 5.11562 21.875 5.54688 21.875H9.375C9.80625 21.875 10.1562 21.525 10.1562 21.0938C10.1562 20.6625 9.80625 20.3125 9.375 20.3125ZM35.6117 16.4062H34.5055C34.0742 16.4062 33.7242 16.7563 33.7242 17.1875C33.7242 17.6187 34.0742 17.9688 34.5055 17.9688H35.6117V19.5312C35.6117 19.9625 35.9617 20.3125 36.393 20.3125C36.8242 20.3125 37.1742 19.9625 37.1742 19.5312V17.9688H38.2812C38.7125 17.9688 39.0625 17.6187 39.0625 17.1875C39.0625 16.7563 38.7125 16.4062 38.2812 16.4062H37.1742V14.8438C37.1742 14.4125 36.8242 14.0625 36.393 14.0625C35.9617 14.0625 35.6117 14.4125 35.6117 14.8438V16.4062ZM9.375 17.1875H3.125C2.69375 17.1875 2.34375 17.5375 2.34375 17.9688C2.34375 18.4 2.69375 18.75 3.125 18.75H9.375C9.80625 18.75 10.1562 18.4 10.1562 17.9688C10.1562 17.5375 9.80625 17.1875 9.375 17.1875ZM21.0938 12.1094H19.5312V16.7969H21.0938V12.1094ZM14.8438 16.7969V12.1094H13.2812V16.7969H14.8438ZM9.375 14.0625H5.54688C5.11562 14.0625 4.76562 14.4125 4.76562 14.8438C4.76562 15.275 5.11562 15.625 5.54688 15.625H9.375C9.80625 15.625 10.1562 15.275 10.1562 14.8438C10.1562 14.4125 9.80625 14.0625 9.375 14.0625ZM9.375 10.9375H3.125C2.69375 10.9375 2.34375 11.2875 2.34375 11.7188C2.34375 12.15 2.69375 12.5 3.125 12.5H9.375C9.80625 12.5 10.1562 12.15 10.1562 11.7188C10.1562 11.2875 9.80625 10.9375 9.375 10.9375ZM9.375 7.8125H5.54688C5.11562 7.8125 4.76562 8.1625 4.76562 8.59375C4.76562 9.025 5.11562 9.375 5.54688 9.375H9.375C9.80625 9.375 10.1562 9.025 10.1562 8.59375C10.1562 8.1625 9.80625 7.8125 9.375 7.8125ZM9.375 4.6875H3.125C2.69375 4.6875 2.34375 5.0375 2.34375 5.46875C2.34375 5.9 2.69375 6.25 3.125 6.25H9.375C9.80625 6.25 10.1562 5.9 10.1562 5.46875C10.1562 5.0375 9.80625 4.6875 9.375 4.6875Z" fill="#173555"/>
</g>
</g>
</svg>
